{
  "accessors": [
    {
      "bufferView": 2,
      "componentType": 5126,
      "count": 280,
      "max": [
        0.3179013431072235,
        1.0,
        1.4727180004119873
      ],
      "min": [
        -0.3179013431072235,
        -1.0000001192092896,
        -1.390379548072815
      ],
      "type": "VEC3"
    },
    {
      "bufferView": 2,
      "byteOffset": 3360,
      "componentType": 5126,
      "count": 280,
      "max": [
        0.9999355673789978,
        1.0,
        1.0
      ],
      "min": [
        -0.9999355673789978,
        -1.0,
        -1.0
      ],
      "type": "VEC3"
    },
    {
      "bufferView": 1,
      "componentType": 5126,
      "count": 280,
      "max": [
        1.0,
        1.0
      ],
      "min": [
        0.0,
        0.0
      ],
      "type": "VEC2"
    },
    {
      "bufferView": 0,
      "componentType": 5125,
      "count": 756,
      "type": "SCALAR"
    },
    {
      "bufferView": 2,
      "byteOffset": 6720,
      "componentType": 5126,
      "count": 1166,
      "max": [
        1.0,
        1.0,
        2.724874973297119
      ],
      "min": [
        -1.0,
        -1.0,
        -3.676851749420166
      ],
      "type": "VEC3"
    },
    {
      "bufferView": 2,
      "byteOffset": 20712,
      "componentType": 5126,
      "count": 1166,
      "max": [
        1.0,
        1.0,
        1.0
      ],
      "min": [
        -1.0,
        -1.0,
        -1.0
      ],
      "type": "VEC3"
    },
    {
      "bufferView": 1,
      "byteOffset": 2240,
      "componentType": 5126,
      "count": 1166,
      "max": [
        0.9997500777244568,
        0.8439526557922363
      ],
      "min": [
        0.0002499202382750809,
        0.0002499202382750809
      ],
      "type": "VEC2"
    },
    {
      "bufferView": 0,
      "byteOffset": 3024,
      "componentType": 5125,
      "count": 5070,
      "type": "SCALAR"
    },
    {
      "bufferView": 2,
      "byteOffset": 34704,
      "componentType": 5126,
      "count": 19728,
      "max": [
        11.641462326049805,
        6.3374152183532715,
        1.1150250434875488
      ],
      "min": [
        -11.641458511352539,
        -6.337424278259277,
        -0.8849747776985168
      ],
      "type": "VEC3"
    },
    {
      "bufferView": 2,
      "byteOffset": 271440,
      "componentType": 5126,
      "count": 19728,
      "max": [
        0.9999962449073792,
        0.9999998211860657,
        1.0
      ],
      "min": [
        -0.9999958872795105,
        -0.9999997019767761,
        -1.0
      ],
      "type": "VEC3"
    },
    {
      "bufferView": 1,
      "byteOffset": 11568,
      "componentType": 5126,
      "count": 19728,
      "max": [
        0.9829240441322327,
        0.625
      ],
      "min": [
        0.017076071351766586,
        0.01712380163371563
      ],
      "type": "VEC2"
    },
    {
      "bufferView": 0,
      "byteOffset": 23304,
      "componentType": 5125,
      "count": 49197,
      "type": "SCALAR"
    }
  ],
  "asset": {
    "extras": {
      "author": "KKarlie (https://sketchfab.com/KKarlie)",
      "license": "CC-BY-4.0 (http://creativecommons.org/licenses/by/4.0/)",
      "source": "https://sketchfab.com/3d-models/peanut-butter-c76c5972b4ff4517ab03539cfadef99c",
      "title": "Peanut Butter"
    },
    "generator": "Sketchfab-15.44.0",
    "version": "2.0"
  },
  "bufferViews": [
    {
      "buffer": 0,
      "byteLength": 220092,
      "name": "floatBufferViews",
      "target": 34963
    },
    {
      "buffer": 0,
      "byteLength": 169392,
      "byteOffset": 220092,
      "byteStride": 8,
      "name": "floatBufferViews",
      "target": 34962
    },
    {
      "buffer": 0,
      "byteLength": 508176,
      "byteOffset": 389484,
      "byteStride": 12,
      "name": "floatBufferViews",
      "target": 34962
    }
  ],
  "buffers": [
    {
      "byteLength": 897660,
      "uri": "scene.bin"
    }
  ],
  "images": [
    {
      "uri": "textures/Material.001_baseColor.jpeg"
    }
  ],
  "materials": [
    {
      "doubleSided": true,
      "name": "Material.001",
      "pbrMetallicRoughness": {
        "baseColorTexture": {
          "index": 0
        },
        "metallicFactor": 0.0,
        "roughnessFactor": 0.7727258238894849
      }
    },
    {
      "doubleSided": true,
      "name": "Peanut_Butter.002",
      "pbrMetallicRoughness": {
        "baseColorFactor": [
          0.198069,
          0.049707,
          0.0,
          1.0
        ],
        "metallicFactor": 0.0,
        "roughnessFactor": 0.9760636063786544
      }
    },
    {
      "doubleSided": true,
      "name": "Rough_Plastic",
      "pbrMetallicRoughness": {
        "baseColorFactor": [
          0.746011,
          0.668776,
          0.698055,
          1.0
        ],
        "metallicFactor": 0.0,
        "roughnessFactor": 0.80681817054222
      }
    }
  ],
  "meshes": [
    {
      "name": "Label_Material.001_0",
      "primitives": [
        {
          "attributes": {
            "NORMAL": 1,
            "POSITION": 0,
            "TEXCOORD_0": 2
          },
          "indices": 3,
          "material": 0,
          "mode": 4
        }
      ]
    },
    {
      "name": "Jar_Peanut Butter.002_0",
      "primitives": [
        {
          "attributes": {
            "NORMAL": 5,
            "POSITION": 4,
            "TEXCOORD_0": 6
          },
          "indices": 7,
          "material": 1,
          "mode": 4
        }
      ]
    },
    {
      "name": "Lid_Rough Plastic_0",
      "primitives": [
        {
          "attributes": {
            "NORMAL": 9,
            "POSITION": 8,
            "TEXCOORD_0": 10
          },
          "indices": 11,
          "material": 2,
          "mode": 4
        }
      ]
    }
  ],
  "nodes": [
    {
      "children": [
        1
      ],
      "matrix": [
        1.0,
        0.0,
        0.0,
        0.0,
        0.0,
        2.220446049250313e-16,
        -1.0,
        0.0,
        0.0,
        1.0,
        2.220446049250313e-16,
        0.0,
        0.0,
        0.0,
        0.0,
        1.0
      ],
      "name": "Sketchfab_model"
    },
    {
      "children": [
        2
      ],
      "matrix": [
        0.009999999776482582,
        0.0,
        0.0,
        0.0,
        0.0,
        0.0,
        0.009999999776482582,
        0.0,
        0.0,
        -0.009999999776482582,
        0.0,
        0.0,
        0.0,
        0.0,
        0.0,
        1.0
      ],
      "name": "fa4ffbb5b6b14e3ea81bae8cf3c2b0dc.fbx"
    },
    {
      "children": [
        3,
        5,
        7
      ],
      "name": "RootNode"
    },
    {
      "children": [
        4
      ],
      "matrix": [
        2.595552682876587,
        0.0,
        0.0,
        0.0,
        0.0,
        0.7384608387947075,
        3.2279148459105676e-08,
        0.0,
        0.0,
        -2.5162441412299437e-08,
        0.5756495594978327,
        0.0,
        0.0,
        -0.11090536415576935,
        -0.024414099752902985,
        1.0
      ],
      "name": "Label"
    },
    {
      "mesh": 0,
      "name": "Label_Material.001_0"
    },
    {
      "children": [
        6
      ],
      "matrix": [
        0.8198291063308716,
        0.0,
        0.0,
        0.0,
        0.0,
        -1.335671149886236e-07,
        -0.8198291063308607,
        0.0,
        0.0,
        0.402350157499308,
        -6.55511610131985e-08,
        0.0,
        0.0,
        0.0,
        0.0,
        1.0
      ],
      "name": "Jar"
    },
    {
      "mesh": 1,
      "name": "Jar_Peanut Butter.002_0"
    },
    {
      "children": [
        8
      ],
      "matrix": [
        0.06577032059431076,
        0.0,
        0.0,
        0.0,
        0.0,
        9.121098846819138e-09,
        -0.12081261724233593,
        0.0,
        0.0,
        0.1617298871278758,
        1.2210266780490908e-08,
        0.0,
        0.0,
        1.1663655042648315,
        0.0,
        1.0
      ],
      "name": "Lid"
    },
    {
      "mesh": 2,
      "name": "Lid_Rough Plastic_0"
    }
  ],
  "samplers": [
    {
      "magFilter": 9729,
      "minFilter": 9987,
      "wrapS": 10497,
      "wrapT": 10497
    }
  ],
  "scene": 0,
  "scenes": [
    {
      "name": "Sketchfab_Scene",
      "nodes": [
        0
      ]
    }
  ],
  "textures": [
    {
      "sampler": 0,
      "source": 0
    }
  ]
}
